<svg width="187" height="44" viewBox="0 0 187 44" fill="none" xmlns="http://www.w3.org/2000/svg">
<path d="M9.46779 3.82031H15.8076C17.2373 3.82031 18.3272 3.92969 19.0772 4.14844C20.085 4.44531 20.9483 4.97266 21.667 5.73047C22.3858 6.48828 22.9326 7.41797 23.3076 8.51953C23.6826 9.61328 23.8701 10.9648 23.8701 12.5742C23.8701 13.9883 23.6944 15.207 23.3428 16.2305C22.9131 17.4805 22.2998 18.4922 21.5029 19.2656C20.9014 19.8516 20.0889 20.3086 19.0654 20.6367C18.2998 20.8789 17.2764 21 15.9951 21H9.46779V3.82031ZM12.9365 6.72656V18.1055H15.5264C16.4951 18.1055 17.1944 18.0508 17.624 17.9414C18.1865 17.8008 18.6514 17.5625 19.0186 17.2266C19.3936 16.8906 19.6983 16.3398 19.9326 15.5742C20.167 14.8008 20.2842 13.75 20.2842 12.4219C20.2842 11.0938 20.167 10.0742 19.9326 9.36328C19.6983 8.65234 19.3701 8.09766 18.9483 7.69922C18.5264 7.30078 17.9912 7.03125 17.3428 6.89062C16.8584 6.78125 15.9092 6.72656 14.4951 6.72656H12.9365ZM26.1201 12.5156C26.1201 10.7656 26.3819 9.29688 26.9053 8.10938C27.2959 7.23437 27.8272 6.44922 28.499 5.75391C29.1787 5.05859 29.9209 4.54297 30.7256 4.20703C31.7959 3.75391 33.0303 3.52734 34.4287 3.52734C36.96 3.52734 38.9834 4.3125 40.499 5.88281C42.0225 7.45312 42.7842 9.63672 42.7842 12.4336C42.7842 15.207 42.0303 17.3789 40.5225 18.9492C39.0147 20.5117 36.999 21.293 34.4756 21.293C31.9209 21.293 29.8897 20.5156 28.3819 18.9609C26.874 17.3984 26.1201 15.25 26.1201 12.5156ZM29.6944 12.3984C29.6944 14.3438 30.1436 15.8203 31.042 16.8281C31.9404 17.8281 33.0811 18.3281 34.4639 18.3281C35.8467 18.3281 36.9795 17.832 37.8623 16.8398C38.7529 15.8398 39.1983 14.3438 39.1983 12.3516C39.1983 10.3828 38.7647 8.91406 37.8975 7.94531C37.0381 6.97656 35.8936 6.49219 34.4639 6.49219C33.0342 6.49219 31.8819 6.98438 31.0069 7.96875C30.1319 8.94531 29.6944 10.4219 29.6944 12.3984ZM45.5147 21V3.82031H52.8154C54.6514 3.82031 55.9834 3.97656 56.8115 4.28906C57.6475 4.59375 58.3154 5.14063 58.8154 5.92969C59.3154 6.71875 59.5654 7.62109 59.5654 8.63672C59.5654 9.92578 59.1865 10.9922 58.4287 11.8359C57.6709 12.6719 56.5381 13.1992 55.0303 13.418C55.7803 13.8555 56.3975 14.3359 56.8819 14.8594C57.374 15.3828 58.0342 16.3125 58.8623 17.6484L60.96 21H56.8115L54.3037 17.2617C53.4131 15.9258 52.8037 15.0859 52.4756 14.7422C52.1475 14.3906 51.7998 14.1523 51.4326 14.0273C51.0654 13.8945 50.4834 13.8281 49.6865 13.8281H48.9834V21H45.5147ZM48.9834 11.0859H51.5498C53.2139 11.0859 54.2529 11.0156 54.667 10.875C55.0811 10.7344 55.4053 10.4922 55.6397 10.1484C55.874 9.80469 55.9912 9.375 55.9912 8.85938C55.9912 8.28125 55.835 7.81641 55.5225 7.46484C55.2178 7.10547 54.7842 6.87891 54.2217 6.78516C53.9404 6.74609 53.0967 6.72656 51.6904 6.72656H48.9834V11.0859ZM78.3389 21H74.5654L73.0654 17.0977H66.1983L64.7803 21H61.1006L67.792 3.82031H71.46L78.3389 21ZM71.9522 14.2031L69.585 7.82812L67.2647 14.2031H71.9522ZM85.2764 12.5156C85.2764 10.7656 85.5381 9.29688 86.0615 8.10938C86.4522 7.23437 86.9834 6.44922 87.6553 5.75391C88.335 5.05859 89.0772 4.54297 89.8819 4.20703C90.9522 3.75391 92.1865 3.52734 93.585 3.52734C96.1162 3.52734 98.1397 4.3125 99.6553 5.88281C101.179 7.45312 101.94 9.63672 101.94 12.4336C101.94 15.207 101.187 17.3789 99.6787 18.9492C98.1709 20.5117 96.1553 21.293 93.6319 21.293C91.0772 21.293 89.0459 20.5156 87.5381 18.9609C86.0303 17.3984 85.2764 15.25 85.2764 12.5156ZM88.8506 12.3984C88.8506 14.3438 89.2998 15.8203 90.1983 16.8281C91.0967 17.8281 92.2373 18.3281 93.6201 18.3281C95.0029 18.3281 96.1358 17.832 97.0186 16.8398C97.9092 15.8398 98.3545 14.3438 98.3545 12.3516C98.3545 10.3828 97.9209 8.91406 97.0537 7.94531C96.1944 6.97656 95.0498 6.49219 93.6201 6.49219C92.1904 6.49219 91.0381 6.98438 90.1631 7.96875C89.2881 8.94531 88.8506 10.4219 88.8506 12.3984ZM104.683 21V3.82031H116.46V6.72656H108.151V10.793H115.323V13.6992H108.151V21H104.683ZM119.355 21V3.82031H131.132V6.72656H122.823V10.793H129.995V13.6992H122.823V21H119.355ZM133.897 21V3.82031H137.366V21H133.897ZM151.675 14.6836L155.038 15.75C154.522 17.625 153.663 19.0195 152.46 19.9336C151.265 20.8398 149.745 21.293 147.901 21.293C145.62 21.293 143.745 20.5156 142.276 18.9609C140.808 17.3984 140.073 15.2656 140.073 12.5625C140.073 9.70312 140.812 7.48438 142.288 5.90625C143.765 4.32031 145.706 3.52734 148.112 3.52734C150.214 3.52734 151.921 4.14844 153.233 5.39062C154.015 6.125 154.601 7.17969 154.991 8.55469L151.558 9.375C151.355 8.48438 150.929 7.78125 150.28 7.26562C149.64 6.75 148.858 6.49219 147.937 6.49219C146.663 6.49219 145.628 6.94922 144.831 7.86328C144.042 8.77734 143.647 10.2578 143.647 12.3047C143.647 14.4766 144.038 16.0234 144.819 16.9453C145.601 17.8672 146.616 18.3281 147.866 18.3281C148.788 18.3281 149.581 18.0352 150.245 17.4492C150.909 16.8633 151.386 15.9414 151.675 14.6836ZM158.026 21V3.82031H170.765V6.72656H161.495V10.5352H170.12V13.4297H161.495V18.1055H171.093V21H158.026Z" fill="#223551"/>
<path d="M10.2392 33.8096V26.6514H11.1864V33.8096H10.2392ZM12.7489 33.8096V28.624H13.5399V29.3613C13.9208 28.7917 14.4709 28.5068 15.1903 28.5068C15.5028 28.5068 15.7893 28.5638 16.0497 28.6777C16.3134 28.7884 16.5103 28.9349 16.6405 29.1172C16.7707 29.2995 16.8619 29.516 16.914 29.7666C16.9465 29.9294 16.9628 30.2142 16.9628 30.6211V33.8096H16.0839V30.6553C16.0839 30.2972 16.0497 30.0303 15.9813 29.8545C15.913 29.6755 15.7909 29.5339 15.6151 29.4297C15.4426 29.3223 15.2392 29.2686 15.0048 29.2686C14.6304 29.2686 14.3065 29.3874 14.0331 29.625C13.7629 29.8626 13.6278 30.3135 13.6278 30.9775V33.8096H12.7489ZM21.6796 33.8096V33.1553C21.3508 33.6696 20.8674 33.9268 20.2294 33.9268C19.816 33.9268 19.4351 33.8128 19.0868 33.585C18.7418 33.3571 18.4732 33.0397 18.2811 32.6328C18.0923 32.2227 17.9979 31.7523 17.9979 31.2217C17.9979 30.7041 18.0842 30.2354 18.2567 29.8154C18.4293 29.3923 18.688 29.0684 19.0331 28.8438C19.3781 28.6191 19.7639 28.5068 20.1903 28.5068C20.5028 28.5068 20.7811 28.5736 21.0253 28.707C21.2694 28.8372 21.468 29.0081 21.621 29.2197V26.6514H22.495V33.8096H21.6796ZM18.9013 31.2217C18.9013 31.8857 19.0412 32.3822 19.3212 32.7109C19.6011 33.0397 19.9315 33.2041 20.3124 33.2041C20.6965 33.2041 21.022 33.0479 21.289 32.7354C21.5591 32.4196 21.6942 31.9395 21.6942 31.2949C21.6942 30.5853 21.5575 30.0645 21.2841 29.7324C21.0106 29.4004 20.6737 29.2344 20.2733 29.2344C19.8827 29.2344 19.5556 29.3939 19.2919 29.7129C19.0315 30.0319 18.9013 30.5348 18.9013 31.2217ZM23.8866 27.6621V26.6514H24.7655V27.6621H23.8866ZM23.8866 33.8096V28.624H24.7655V33.8096H23.8866ZM29.4921 33.1699C29.1666 33.4466 28.8524 33.6419 28.5497 33.7559C28.2502 33.8698 27.928 33.9268 27.5829 33.9268C27.0132 33.9268 26.5754 33.7884 26.2694 33.5117C25.9634 33.2318 25.8104 32.8753 25.8104 32.4424C25.8104 32.1885 25.8674 31.9574 25.9813 31.749C26.0985 31.5374 26.2499 31.3682 26.4354 31.2412C26.6242 31.1143 26.8358 31.0182 27.0702 30.9531C27.2427 30.9076 27.5031 30.8636 27.8515 30.8213C28.5611 30.7367 29.0836 30.6357 29.4188 30.5186C29.4221 30.3981 29.4237 30.3216 29.4237 30.2891C29.4237 29.931 29.3407 29.6787 29.1747 29.5322C28.9501 29.3337 28.6164 29.2344 28.1737 29.2344C27.7603 29.2344 27.4543 29.3076 27.2558 29.4541C27.0604 29.5973 26.9156 29.8529 26.8212 30.2207L25.9618 30.1035C26.0399 29.7357 26.1685 29.4395 26.3475 29.2148C26.5266 28.987 26.7854 28.8128 27.1239 28.6924C27.4625 28.5687 27.8547 28.5068 28.3007 28.5068C28.7434 28.5068 29.1031 28.5589 29.3798 28.6631C29.6565 28.7673 29.8599 28.8991 29.9901 29.0586C30.1203 29.2148 30.2115 29.4134 30.2636 29.6543C30.2929 29.804 30.3075 30.0742 30.3075 30.4648V31.6367C30.3075 32.4538 30.3254 32.9714 30.3612 33.1895C30.4003 33.4043 30.4752 33.611 30.5858 33.8096H29.6679C29.5767 33.6273 29.5181 33.4141 29.4921 33.1699ZM29.4188 31.207C29.0998 31.3372 28.6213 31.4479 27.9833 31.5391C27.622 31.5911 27.3664 31.6497 27.2167 31.7148C27.067 31.7799 26.9514 31.876 26.87 32.0029C26.7886 32.1266 26.7479 32.265 26.7479 32.418C26.7479 32.6523 26.8358 32.8477 27.0116 33.0039C27.1906 33.1602 27.4511 33.2383 27.7929 33.2383C28.1314 33.2383 28.4325 33.165 28.6962 33.0186C28.9599 32.8688 29.1535 32.6654 29.2772 32.4082C29.3716 32.2096 29.4188 31.9167 29.4188 31.5293V31.207ZM31.6747 33.8096V28.624H32.4657V29.3613C32.8466 28.7917 33.3967 28.5068 34.1161 28.5068C34.4286 28.5068 34.7151 28.5638 34.9755 28.6777C35.2392 28.7884 35.4361 28.9349 35.5663 29.1172C35.6965 29.2995 35.7877 29.516 35.8397 29.7666C35.8723 29.9294 35.8886 30.2142 35.8886 30.6211V33.8096H35.0097V30.6553C35.0097 30.2972 34.9755 30.0303 34.9071 29.8545C34.8388 29.6755 34.7167 29.5339 34.5409 29.4297C34.3684 29.3223 34.1649 29.2686 33.9306 29.2686C33.5562 29.2686 33.2323 29.3874 32.9589 29.625C32.6887 29.8626 32.5536 30.3135 32.5536 30.9775V33.8096H31.6747ZM40.2977 33.8096V26.6514H41.245V33.8096H40.2977ZM42.8075 33.8096V28.624H43.5985V29.3613C43.9794 28.7917 44.5295 28.5068 45.2489 28.5068C45.5614 28.5068 45.8479 28.5638 46.1083 28.6777C46.372 28.7884 46.5689 28.9349 46.6991 29.1172C46.8293 29.2995 46.9205 29.516 46.9725 29.7666C47.0051 29.9294 47.0214 30.2142 47.0214 30.6211V33.8096H46.1425V30.6553C46.1425 30.2972 46.1083 30.0303 46.0399 29.8545C45.9716 29.6755 45.8495 29.5339 45.6737 29.4297C45.5012 29.3223 45.2977 29.2686 45.0634 29.2686C44.689 29.2686 44.3651 29.3874 44.0917 29.625C43.8215 29.8626 43.6864 30.3135 43.6864 30.9775V33.8096H42.8075ZM48.0224 32.2617L48.8915 32.125C48.9403 32.4733 49.0754 32.7402 49.2968 32.9258C49.5214 33.1113 49.8339 33.2041 50.2343 33.2041C50.6379 33.2041 50.9374 33.1227 51.1327 32.96C51.328 32.7939 51.4257 32.6003 51.4257 32.3789C51.4257 32.1803 51.3394 32.0241 51.1669 31.9102C51.0464 31.832 50.747 31.7327 50.2684 31.6123C49.6239 31.4495 49.1763 31.3096 48.9257 31.1924C48.6783 31.0719 48.4895 30.9076 48.3593 30.6992C48.2323 30.4876 48.1688 30.2549 48.1688 30.001C48.1688 29.7699 48.2209 29.5566 48.3251 29.3613C48.4325 29.1628 48.5774 28.9984 48.7597 28.8682C48.8964 28.7673 49.0819 28.6826 49.3163 28.6143C49.5539 28.5426 49.8078 28.5068 50.078 28.5068C50.4849 28.5068 50.8414 28.5654 51.1474 28.6826C51.4566 28.7998 51.6845 28.9593 51.8309 29.1611C51.9774 29.3597 52.0783 29.6266 52.1337 29.9619L51.2743 30.0791C51.2352 29.8122 51.1213 29.6038 50.9325 29.4541C50.747 29.3044 50.4833 29.2295 50.1415 29.2295C49.7378 29.2295 49.4498 29.2962 49.2772 29.4297C49.1047 29.5632 49.0184 29.7194 49.0184 29.8984C49.0184 30.0124 49.0543 30.1149 49.1259 30.2061C49.1975 30.3005 49.3098 30.3786 49.4628 30.4404C49.5507 30.473 49.8095 30.5479 50.2392 30.665C50.8609 30.8311 51.2938 30.9678 51.538 31.0752C51.7854 31.1794 51.9791 31.3324 52.119 31.5342C52.259 31.736 52.329 31.9867 52.329 32.2861C52.329 32.5791 52.2427 32.8558 52.0702 33.1162C51.9009 33.3734 51.6552 33.5736 51.3329 33.7168C51.0106 33.8568 50.6461 33.9268 50.2392 33.9268C49.5653 33.9268 49.051 33.7868 48.6962 33.5068C48.3446 33.2269 48.12 32.8118 48.0224 32.2617ZM55.2929 33.0234L55.4198 33.7998C55.1724 33.8519 54.9511 33.8779 54.7558 33.8779C54.4367 33.8779 54.1893 33.8275 54.0136 33.7266C53.8378 33.6257 53.7141 33.4938 53.6425 33.3311C53.5709 33.165 53.535 32.8184 53.535 32.291V29.3076H52.8905V28.624H53.535V27.3398L54.4091 26.8125V28.624H55.2929V29.3076H54.4091V32.3398C54.4091 32.5905 54.4237 32.7516 54.453 32.8232C54.4856 32.8949 54.536 32.9518 54.6044 32.9941C54.676 33.0365 54.7769 33.0576 54.9071 33.0576C55.0048 33.0576 55.1334 33.0462 55.2929 33.0234ZM56.162 27.6621V26.6514H57.0409V27.6621H56.162ZM56.162 33.8096V28.624H57.0409V33.8096H56.162ZM60.3026 33.0234L60.4296 33.7998C60.1822 33.8519 59.9608 33.8779 59.7655 33.8779C59.4465 33.8779 59.1991 33.8275 59.0233 33.7266C58.8475 33.6257 58.7239 33.4938 58.6522 33.3311C58.5806 33.165 58.5448 32.8184 58.5448 32.291V29.3076H57.9003V28.624H58.5448V27.3398L59.4188 26.8125V28.624H60.3026V29.3076H59.4188V32.3398C59.4188 32.5905 59.4335 32.7516 59.4628 32.8232C59.4953 32.8949 59.5458 32.9518 59.6142 32.9941C59.6858 33.0365 59.7867 33.0576 59.9169 33.0576C60.0145 33.0576 60.1431 33.0462 60.3026 33.0234ZM64.5653 33.8096V33.0479C64.1617 33.6338 63.6132 33.9268 62.9198 33.9268C62.6138 33.9268 62.3274 33.8682 62.0604 33.751C61.7968 33.6338 61.5998 33.4873 61.4696 33.3115C61.3427 33.1325 61.2531 32.9144 61.2011 32.6572C61.1653 32.4847 61.1474 32.2113 61.1474 31.8369V28.624H62.0263V31.5C62.0263 31.959 62.0442 32.2682 62.08 32.4277C62.1353 32.6589 62.2525 32.8411 62.4315 32.9746C62.6106 33.1048 62.8319 33.1699 63.0956 33.1699C63.3593 33.1699 63.6067 33.1032 63.8378 32.9697C64.0689 32.833 64.2317 32.6491 64.3261 32.418C64.4237 32.1836 64.4725 31.8451 64.4725 31.4023V28.624H65.3515V33.8096H64.5653ZM68.6522 33.0234L68.7792 33.7998C68.5318 33.8519 68.3104 33.8779 68.1151 33.8779C67.7961 33.8779 67.5487 33.8275 67.3729 33.7266C67.1972 33.6257 67.0735 33.4938 67.0018 33.3311C66.9302 33.165 66.8944 32.8184 66.8944 32.291V29.3076H66.2499V28.624H66.8944V27.3398L67.7684 26.8125V28.624H68.6522V29.3076H67.7684V32.3398C67.7684 32.5905 67.7831 32.7516 67.8124 32.8232C67.8449 32.8949 67.8954 32.9518 67.9638 32.9941C68.0354 33.0365 68.1363 33.0576 68.2665 33.0576C68.3642 33.0576 68.4927 33.0462 68.6522 33.0234ZM73.0663 32.1396L73.9745 32.252C73.8313 32.7826 73.566 33.1943 73.1786 33.4873C72.7912 33.7803 72.2964 33.9268 71.6942 33.9268C70.9358 33.9268 70.3336 33.694 69.8876 33.2285C69.4449 32.7598 69.2235 32.1038 69.2235 31.2607C69.2235 30.3883 69.4481 29.7113 69.8974 29.2295C70.3466 28.7477 70.9293 28.5068 71.6454 28.5068C72.3388 28.5068 72.9052 28.7428 73.3446 29.2148C73.7841 29.6868 74.0038 30.3509 74.0038 31.207C74.0038 31.2591 74.0022 31.3372 73.9989 31.4414H70.1317C70.1643 32.0111 70.3254 32.4473 70.6151 32.75C70.9048 33.0527 71.2662 33.2041 71.6991 33.2041C72.0214 33.2041 72.2964 33.1195 72.5243 32.9502C72.7522 32.7809 72.9328 32.5107 73.0663 32.1396ZM70.1806 30.7188H73.0761C73.037 30.2826 72.9263 29.9554 72.744 29.7373C72.4641 29.3988 72.1011 29.2295 71.6552 29.2295C71.2515 29.2295 70.9114 29.3646 70.6347 29.6348C70.3612 29.9049 70.2099 30.2663 70.1806 30.7188ZM77.539 31.2168C77.539 30.2565 77.8059 29.5452 78.3397 29.083C78.7857 28.6989 79.3293 28.5068 79.9706 28.5068C80.6835 28.5068 81.2662 28.7412 81.7186 29.21C82.1711 29.6755 82.3974 30.32 82.3974 31.1436C82.3974 31.8109 82.2964 32.3366 82.0946 32.7207C81.8961 33.1016 81.6047 33.3978 81.2206 33.6094C80.8397 33.821 80.4231 33.9268 79.9706 33.9268C79.2447 33.9268 78.6571 33.694 78.2079 33.2285C77.7619 32.763 77.539 32.0924 77.539 31.2168ZM78.4423 31.2168C78.4423 31.8809 78.5871 32.3789 78.8768 32.7109C79.1666 33.0397 79.5311 33.2041 79.9706 33.2041C80.4068 33.2041 80.7697 33.0381 81.0595 32.7061C81.3492 32.374 81.494 31.8678 81.494 31.1875C81.494 30.5462 81.3475 30.0612 81.0546 29.7324C80.7649 29.4004 80.4035 29.2344 79.9706 29.2344C79.5311 29.2344 79.1666 29.3988 78.8768 29.7275C78.5871 30.0563 78.4423 30.5527 78.4423 31.2168ZM83.6425 33.8096V29.3076H82.8661V28.624H83.6425V28.0723C83.6425 27.724 83.6734 27.4652 83.7352 27.2959C83.8199 27.068 83.968 26.8841 84.1796 26.7441C84.3944 26.6009 84.6939 26.5293 85.078 26.5293C85.3254 26.5293 85.5989 26.5586 85.8983 26.6172L85.7665 27.3838C85.5842 27.3512 85.4117 27.335 85.2489 27.335C84.982 27.335 84.7932 27.3919 84.6825 27.5059C84.5718 27.6198 84.5165 27.833 84.5165 28.1455V28.624H85.5272V29.3076H84.5165V33.8096H83.6425ZM90.747 33.8096V27.4961H88.3886V26.6514H94.0624V27.4961H91.6942V33.8096H90.747ZM97.3632 32.1396L98.2714 32.252C98.1281 32.7826 97.8628 33.1943 97.4755 33.4873C97.0881 33.7803 96.5933 33.9268 95.9911 33.9268C95.2326 33.9268 94.6304 33.694 94.1845 33.2285C93.7418 32.7598 93.5204 32.1038 93.5204 31.2607C93.5204 30.3883 93.745 29.7113 94.1942 29.2295C94.6434 28.7477 95.2261 28.5068 95.9423 28.5068C96.6356 28.5068 97.202 28.7428 97.6415 29.2148C98.0809 29.6868 98.3007 30.3509 98.3007 31.207C98.3007 31.2591 98.299 31.3372 98.2958 31.4414H94.4286C94.4612 32.0111 94.6223 32.4473 94.912 32.75C95.2017 33.0527 95.563 33.2041 95.996 33.2041C96.3183 33.2041 96.5933 33.1195 96.8212 32.9502C97.049 32.7809 97.2297 32.5107 97.3632 32.1396ZM94.4774 30.7188H97.3729C97.3339 30.2826 97.2232 29.9554 97.0409 29.7373C96.761 29.3988 96.398 29.2295 95.952 29.2295C95.5484 29.2295 95.2082 29.3646 94.9315 29.6348C94.6581 29.9049 94.5067 30.2663 94.4774 30.7188ZM102.764 31.9102L103.628 32.0225C103.533 32.6182 103.291 33.0853 102.9 33.4238C102.513 33.7591 102.036 33.9268 101.47 33.9268C100.76 33.9268 100.189 33.6956 99.7558 33.2334C99.3261 32.7679 99.1112 32.1022 99.1112 31.2363C99.1112 30.6764 99.204 30.1865 99.3895 29.7666C99.5751 29.3467 99.8567 29.0326 100.234 28.8242C100.615 28.6126 101.029 28.5068 101.475 28.5068C102.038 28.5068 102.498 28.6501 102.856 28.9365C103.214 29.2197 103.444 29.6234 103.545 30.1475L102.69 30.2793C102.609 29.931 102.464 29.6689 102.256 29.4932C102.051 29.3174 101.802 29.2295 101.509 29.2295C101.066 29.2295 100.706 29.389 100.43 29.708C100.153 30.0238 100.015 30.5251 100.015 31.2119C100.015 31.9085 100.148 32.4147 100.415 32.7305C100.682 33.0462 101.03 33.2041 101.46 33.2041C101.805 33.2041 102.093 33.0983 102.324 32.8867C102.555 32.6751 102.702 32.3496 102.764 31.9102ZM104.38 33.8096V26.6514H105.259V29.2197C105.669 28.7445 106.186 28.5068 106.811 28.5068C107.196 28.5068 107.529 28.5833 107.812 28.7363C108.096 28.8861 108.297 29.0944 108.418 29.3613C108.542 29.6283 108.603 30.0156 108.603 30.5234V33.8096H107.725V30.5234C107.725 30.084 107.628 29.765 107.436 29.5664C107.248 29.3646 106.979 29.2637 106.631 29.2637C106.37 29.2637 106.125 29.332 105.893 29.4688C105.666 29.6022 105.503 29.7845 105.405 30.0156C105.308 30.2467 105.259 30.5658 105.259 30.9727V33.8096H104.38ZM109.946 33.8096V28.624H110.737V29.3613C111.118 28.7917 111.668 28.5068 112.388 28.5068C112.7 28.5068 112.987 28.5638 113.247 28.6777C113.511 28.7884 113.708 28.9349 113.838 29.1172C113.968 29.2995 114.059 29.516 114.111 29.7666C114.144 29.9294 114.16 30.2142 114.16 30.6211V33.8096H113.281V30.6553C113.281 30.2972 113.247 30.0303 113.179 29.8545C113.11 29.6755 112.988 29.5339 112.812 29.4297C112.64 29.3223 112.436 29.2686 112.202 29.2686C111.828 29.2686 111.504 29.3874 111.23 29.625C110.96 29.8626 110.825 30.3135 110.825 30.9775V33.8096H109.946ZM115.185 31.2168C115.185 30.2565 115.452 29.5452 115.986 29.083C116.432 28.6989 116.976 28.5068 117.617 28.5068C118.33 28.5068 118.913 28.7412 119.365 29.21C119.818 29.6755 120.044 30.32 120.044 31.1436C120.044 31.8109 119.943 32.3366 119.741 32.7207C119.543 33.1016 119.251 33.3978 118.867 33.6094C118.486 33.821 118.07 33.9268 117.617 33.9268C116.891 33.9268 116.304 33.694 115.854 33.2285C115.408 32.763 115.185 32.0924 115.185 31.2168ZM116.089 31.2168C116.089 31.8809 116.234 32.3789 116.523 32.7109C116.813 33.0397 117.178 33.2041 117.617 33.2041C118.053 33.2041 118.416 33.0381 118.706 32.7061C118.996 32.374 119.141 31.8678 119.141 31.1875C119.141 30.5462 118.994 30.0612 118.701 29.7324C118.411 29.4004 118.05 29.2344 117.617 29.2344C117.178 29.2344 116.813 29.3988 116.523 29.7275C116.234 30.0563 116.089 30.5527 116.089 31.2168ZM121.059 33.8096V26.6514H121.938V33.8096H121.059ZM122.978 31.2168C122.978 30.2565 123.245 29.5452 123.779 29.083C124.225 28.6989 124.769 28.5068 125.41 28.5068C126.123 28.5068 126.706 28.7412 127.158 29.21C127.611 29.6755 127.837 30.32 127.837 31.1436C127.837 31.8109 127.736 32.3366 127.534 32.7207C127.336 33.1016 127.044 33.3978 126.66 33.6094C126.279 33.821 125.863 33.9268 125.41 33.9268C124.684 33.9268 124.097 33.694 123.647 33.2285C123.201 32.763 122.978 32.0924 122.978 31.2168ZM123.882 31.2168C123.882 31.8809 124.027 32.3789 124.316 32.7109C124.606 33.0397 124.971 33.2041 125.41 33.2041C125.846 33.2041 126.209 33.0381 126.499 32.7061C126.789 32.374 126.933 31.8678 126.933 31.1875C126.933 30.5462 126.787 30.0612 126.494 29.7324C126.204 29.4004 125.843 29.2344 125.41 29.2344C124.971 29.2344 124.606 29.3988 124.316 29.7275C124.027 30.0563 123.882 30.5527 123.882 31.2168ZM128.711 34.2393L129.565 34.3662C129.601 34.6299 129.7 34.8219 129.863 34.9424C130.081 35.1051 130.379 35.1865 130.757 35.1865C131.164 35.1865 131.478 35.1051 131.699 34.9424C131.92 34.7796 132.07 34.5518 132.148 34.2588C132.194 34.0798 132.215 33.7038 132.212 33.1309C131.828 33.5833 131.349 33.8096 130.776 33.8096C130.063 33.8096 129.512 33.5524 129.121 33.0381C128.73 32.5238 128.535 31.9069 128.535 31.1875C128.535 30.6927 128.625 30.237 128.804 29.8203C128.983 29.4004 129.241 29.0765 129.58 28.8486C129.922 28.6208 130.322 28.5068 130.781 28.5068C131.393 28.5068 131.898 28.7542 132.295 29.249V28.624H133.105V33.1064C133.105 33.9137 133.022 34.485 132.856 34.8203C132.694 35.1589 132.433 35.4258 132.075 35.6211C131.72 35.8164 131.282 35.9141 130.762 35.9141C130.143 35.9141 129.643 35.7741 129.263 35.4941C128.882 35.2174 128.698 34.7992 128.711 34.2393ZM129.438 31.124C129.438 31.8044 129.573 32.3008 129.844 32.6133C130.114 32.9258 130.452 33.082 130.859 33.082C131.263 33.082 131.601 32.9274 131.875 32.6182C132.148 32.3057 132.285 31.8174 132.285 31.1533C132.285 30.5186 132.143 30.04 131.86 29.7178C131.58 29.3955 131.242 29.2344 130.845 29.2344C130.454 29.2344 130.122 29.3939 129.849 29.7129C129.575 30.0286 129.438 30.499 129.438 31.124ZM134.399 35.8066L134.302 34.9814C134.494 35.0335 134.661 35.0596 134.805 35.0596C135 35.0596 135.156 35.027 135.273 34.9619C135.391 34.8968 135.487 34.8057 135.561 34.6885C135.617 34.6006 135.706 34.3825 135.83 34.0342C135.846 33.9854 135.872 33.9137 135.908 33.8193L133.94 28.624H134.888L135.967 31.627C136.107 32.0078 136.232 32.4082 136.343 32.8281C136.444 32.4245 136.564 32.0306 136.704 31.6465L137.812 28.624H138.691L136.719 33.8975C136.507 34.4671 136.343 34.8594 136.225 35.0742C136.069 35.3639 135.89 35.5755 135.688 35.709C135.487 35.8457 135.246 35.9141 134.966 35.9141C134.796 35.9141 134.608 35.8783 134.399 35.8066ZM142.349 33.8096V26.6514H145.522C146.16 26.6514 146.645 26.7165 146.977 26.8467C147.309 26.9736 147.575 27.1999 147.773 27.5254C147.972 27.8509 148.071 28.2106 148.071 28.6045C148.071 29.1123 147.907 29.5404 147.578 29.8887C147.249 30.237 146.741 30.4583 146.055 30.5527C146.305 30.6732 146.496 30.792 146.626 30.9092C146.903 31.1631 147.165 31.4805 147.412 31.8613L148.657 33.8096H147.466L146.518 32.3203C146.242 31.8906 146.014 31.5618 145.835 31.334C145.656 31.1061 145.495 30.9466 145.351 30.8555C145.211 30.7643 145.068 30.7008 144.922 30.665C144.814 30.6423 144.639 30.6309 144.394 30.6309H143.296V33.8096H142.349ZM143.296 29.8105H145.332C145.765 29.8105 146.103 29.7666 146.348 29.6787C146.592 29.5876 146.777 29.4443 146.904 29.249C147.031 29.0505 147.095 28.8356 147.095 28.6045C147.095 28.266 146.971 27.9876 146.724 27.7695C146.479 27.5514 146.092 27.4424 145.561 27.4424H143.296V29.8105ZM149.121 31.2168C149.121 30.2565 149.388 29.5452 149.922 29.083C150.368 28.6989 150.911 28.5068 151.553 28.5068C152.266 28.5068 152.848 28.7412 153.301 29.21C153.753 29.6755 153.979 30.32 153.979 31.1436C153.979 31.8109 153.878 32.3366 153.677 32.7207C153.478 33.1016 153.187 33.3978 152.803 33.6094C152.422 33.821 152.005 33.9268 151.553 33.9268C150.827 33.9268 150.239 33.694 149.79 33.2285C149.344 32.763 149.121 32.0924 149.121 31.2168ZM150.024 31.2168C150.024 31.8809 150.169 32.3789 150.459 32.7109C150.749 33.0397 151.113 33.2041 151.553 33.2041C151.989 33.2041 152.352 33.0381 152.641 32.7061C152.931 32.374 153.076 31.8678 153.076 31.1875C153.076 30.5462 152.93 30.0612 152.637 29.7324C152.347 29.4004 151.986 29.2344 151.553 29.2344C151.113 29.2344 150.749 29.3988 150.459 29.7275C150.169 30.0563 150.024 30.5527 150.024 31.2168ZM154.687 31.2168C154.687 30.2565 154.954 29.5452 155.488 29.083C155.934 28.6989 156.478 28.5068 157.119 28.5068C157.832 28.5068 158.415 28.7412 158.867 29.21C159.32 29.6755 159.546 30.32 159.546 31.1436C159.546 31.8109 159.445 32.3366 159.243 32.7207C159.044 33.1016 158.753 33.3978 158.369 33.6094C157.988 33.821 157.572 33.9268 157.119 33.9268C156.393 33.9268 155.806 33.694 155.356 33.2285C154.91 32.763 154.687 32.0924 154.687 31.2168ZM155.591 31.2168C155.591 31.8809 155.736 32.3789 156.025 32.7109C156.315 33.0397 156.68 33.2041 157.119 33.2041C157.555 33.2041 157.918 33.0381 158.208 32.7061C158.498 32.374 158.642 31.8678 158.642 31.1875C158.642 30.5462 158.496 30.0612 158.203 29.7324C157.913 29.4004 157.552 29.2344 157.119 29.2344C156.68 29.2344 156.315 29.3988 156.025 29.7275C155.736 30.0563 155.591 30.5527 155.591 31.2168ZM160.571 33.8096V28.624H161.362V29.4102C161.564 29.0423 161.75 28.7998 161.919 28.6826C162.091 28.5654 162.28 28.5068 162.485 28.5068C162.781 28.5068 163.083 28.6012 163.389 28.79L163.086 29.6055C162.871 29.4785 162.656 29.415 162.441 29.415C162.249 29.415 162.077 29.4736 161.924 29.5908C161.771 29.7048 161.662 29.8643 161.597 30.0693C161.499 30.3818 161.45 30.7236 161.45 31.0947V33.8096H160.571ZM163.916 33.8096V26.6514H164.795V30.7334L166.875 28.624H168.013L166.03 30.5479L168.213 33.8096H167.129L165.415 31.1582L164.795 31.7539V33.8096H163.916ZM172.461 32.1396L173.369 32.252C173.226 32.7826 172.961 33.1943 172.573 33.4873C172.186 33.7803 171.691 33.9268 171.089 33.9268C170.33 33.9268 169.728 33.694 169.282 33.2285C168.839 32.7598 168.618 32.1038 168.618 31.2607C168.618 30.3883 168.843 29.7113 169.292 29.2295C169.741 28.7477 170.324 28.5068 171.04 28.5068C171.733 28.5068 172.3 28.7428 172.739 29.2148C173.179 29.6868 173.398 30.3509 173.398 31.207C173.398 31.2591 173.397 31.3372 173.393 31.4414H169.526C169.559 32.0111 169.72 32.4473 170.01 32.75C170.299 33.0527 170.661 33.2041 171.094 33.2041C171.416 33.2041 171.691 33.1195 171.919 32.9502C172.147 32.7809 172.327 32.5107 172.461 32.1396ZM169.575 30.7188H172.471C172.432 30.2826 172.321 29.9554 172.139 29.7373C171.859 29.3988 171.496 29.2295 171.05 29.2295C170.646 29.2295 170.306 29.3646 170.029 29.6348C169.756 29.9049 169.604 30.2663 169.575 30.7188ZM178.027 32.1396L178.935 32.252C178.792 32.7826 178.527 33.1943 178.14 33.4873C177.752 33.7803 177.257 33.9268 176.655 33.9268C175.897 33.9268 175.294 33.694 174.849 33.2285C174.406 32.7598 174.184 32.1038 174.184 31.2607C174.184 30.3883 174.409 29.7113 174.858 29.2295C175.308 28.7477 175.89 28.5068 176.606 28.5068C177.3 28.5068 177.866 28.7428 178.306 29.2148C178.745 29.6868 178.965 30.3509 178.965 31.207C178.965 31.2591 178.963 31.3372 178.96 31.4414H175.093C175.125 32.0111 175.286 32.4473 175.576 32.75C175.866 33.0527 176.227 33.2041 176.66 33.2041C176.982 33.2041 177.257 33.1195 177.485 32.9502C177.713 32.7809 177.894 32.5107 178.027 32.1396ZM175.141 30.7188H178.037C177.998 30.2826 177.887 29.9554 177.705 29.7373C177.425 29.3988 177.062 29.2295 176.616 29.2295C176.212 29.2295 175.872 29.3646 175.596 29.6348C175.322 29.9049 175.171 30.2663 175.141 30.7188Z" fill="#223551"/>
</svg>
